<?xml version="1.0" standalone="no"?>
<!DOCTYPE svg PUBLIC "-//W3C//DTD SVG 20010904//EN"
 "http://www.w3.org/TR/2001/REC-SVG-20010904/DTD/svg10.dtd">
<svg version="1.0" xmlns="http://www.w3.org/2000/svg"
 width="125.000000pt" height="125.000000pt" viewBox="0 0 125.000000 125.000000"
 preserveAspectRatio="xMidYMid meet">

<g transform="translate(0.000000,125.000000) scale(0.100000,-0.100000)"
fill="#713BDB" stroke="none">
<path d="M0 625 l0 -625 625 0 625 0 0 625 0 625 -625 0 -625 0 0 -625z m385
113 l120 -192 7 64 c4 35 5 67 2 72 -3 4 -18 8 -35 8 -24 0 -29 4 -29 25 0 21
5 25 30 25 l30 0 0 95 0 95 35 0 35 0 0 -95 0 -95 100 0 100 0 0 -25 c0 -24
-2 -25 -65 -25 l-65 0 0 -215 0 -215 -37 0 -36 0 6 118 c3 66 2 124 -3 132 -7
11 -10 4 -10 -23 0 -38 0 -38 -37 -35 -37 3 -39 6 -158 192 l-120 189 -3 -191
-2 -192 -35 0 -35 0 0 240 0 240 43 0 42 0 120 -192z m664 -138 c84 -42 125
-127 120 -242 -8 -144 -81 -228 -205 -236 -82 -5 -141 16 -185 65 -46 53 -59
93 -59 180 0 119 45 200 130 237 51 22 152 20 199 -4z"/>
<path d="M548 683 c-24 -6 -23 -29 2 -36 14 -3 20 -14 21 -34 l1 -28 8 25 c4
14 8 37 9 53 1 27 -5 30 -41 20z"/>
<path d="M900 560 c-45 -11 -96 -67 -110 -122 -15 -52 -8 -134 14 -177 62
-118 220 -116 284 4 25 46 21 169 -6 222 -33 63 -105 92 -182 73z"/>
</g>
</svg>
